<?xml version="1.0" encoding="UTF-8"?>
<svg data-bbox="0 -0.624 311 56.877" height="56" width="311" xmlns="http://www.w3.org/2000/svg" data-type="ugc">
    <g>
        <path fill="#FDFDFD" d="M0 0h311v56H0z"/>
        <path fill="#FBFBFD" d="M163 0h148v56H179l1-49h16V1h-33z"/>
        <path fill="#FAFBFC" d="M111.547-.523q2.043.009 4.086.013c3.627.013 7.252.057 10.878.107 3.722.047 7.443.066 11.165.089C157.12-.177 176.573.108 196 1v6h-16l.016 4.39q.026 8.033.04 16.063.006 3.483.02 6.964.016 4.993.022 9.986l.015 3.166v2.912l.007 2.577C180 55 180 55 179 56c-3.02.114-6.017.165-9.039.168l-2.77.01a2161 2161 0 0 1-5.826.008c-2.956.002-5.912.02-8.869.039q-2.83.005-5.66.006l-2.665.022c-11.741-.043-11.741-.043-16.244-4.138l-1.689-2.306-1.935-2.59-1.99-2.781-2.093-2.831a755 755 0 0 1-14.59-20.538C103.336 17.48 103.336 17.48 100 15v40h-7c-.127-7.029-.214-14.057-.275-21.087q-.037-3.586-.102-7.173c-.06-3.438-.09-6.875-.111-10.314l-.078-3.236c-.002-4.442.152-7.407 2.25-11.371 5.409-2.966 10.8-2.448 16.863-2.342"/>
        <path fill="#FAFAFC" d="M66.326-.114q2.214 0 4.427.016l2.35.004q3.73.01 7.46.031l5.044.014Q91.803-.033 98 0l-1.962 1.785c-3.017 4.758-2.641 9.112-2.648 14.64l-.05 3.342c-.048 3.515-.07 7.03-.09 10.545l-.09 7.158Q93.05 46.234 93 55h7V15c3.852 1.284 5.014 3.527 7.187 6.75 5.255 7.587 10.835 14.906 16.454 22.227l2.015 2.628 1.806 2.348C128.696 50.596 129.86 52.29 131 54c3.065.733 3.065.733 6 1v1q-14.448.035-28.894.051-6.707.008-13.415.024-6.468.015-12.935.02-2.473.002-4.946.01-3.452.01-6.904.008l-3.977.007C63 56 63 56 62 55a88 88 0 0 1-.129-5.055l-.01-3.266.007-3.554-.003-3.621q0-3.798.005-7.596c.006-3.892 0-7.783-.006-11.674q0-3.68.004-7.36L61.86 9.32l.01-3.266c0-.954 0-1.908.002-2.89.208-3.56.773-3.152 4.453-3.278"/>
        <path fill="#506EB1" d="M0 1h16l1 25 3.813-4.25a896 896 0 0 1 8.164-8.98l1.492-1.619q1.447-1.566 2.9-3.127C35.461 5.757 37.282 3.576 39 1c2.383-.293 2.383-.293 5.125-.187l2.758.082L49 1c-3.441 4.853-7.043 9.19-11.32 13.324C35.26 16.74 33.142 19.338 31 22c1.465 4.332 3.674 7.423 6.5 11l1.318 1.685A1505 1505 0 0 0 43 40q2.822 3.586 5.625 7.188l1.326 1.673C53 52.774 53 52.774 53 55a364 364 0 0 1-7.125.25l-2.016.102c-5.214.102-7.93-.98-11.859-4.352-2.23-2.553-4.217-5.243-6.187-8l-1.577-2.156a682 682 0 0 1-2.89-3.985C19.92 34.89 18.46 32.946 17 31l-1 24H0z"/>
        <path fill="#4465AC" d="M103.84-.566c6.912 1.812 10.351 7.102 14.098 12.691l1.575 2.29A954 954 0 0 1 124 21q2.054 3.007 4.125 6l1.57 2.313C130.91 31.136 130.91 31.136 133 32V1h7q.037 11.295.055 22.59.008 3.845.02 7.69c.013 3.677.018 7.353.023 11.029l.015 3.497v3.216l.007 2.846C140 54 140 54 139 55c-3.13.473-4.992.717-8 0-2.762-2.194-4.62-4.932-6.625-7.812l-1.78-2.42a488 488 0 0 1-3.7-5.114c-2.536-3.551-5.129-7.06-7.722-10.568a838 838 0 0 1-3.642-4.977l-1.668-2.292-1.46-2.018c-1.569-2.087-1.569-2.087-4.403-4.799v40h-7c-.127-7.029-.214-14.057-.275-21.087q-.037-3.586-.102-7.173c-.06-3.438-.09-6.875-.111-10.314l-.078-3.236c-.003-7.397-.003-7.397 2.85-11.369 2.935-1.967 5.028-2.38 8.556-2.387"/>
        <path fill="#4767AE" d="M251 1a364 364 0 0 1 7.125-.25l2.016-.102C265.345.546 268.044 1.69 272 5c2.083 2.156 3.99 4.42 5.875 6.75l1.508 1.824A720 720 0 0 1 283 18q2.94-3.404 5.875-6.812l1.684-1.948 1.62-1.885c.493-.57.985-1.141 1.492-1.73 1.515-1.8 1.515-1.8 3.329-4.625 2.164-.293 2.164-.293 4.625-.187l2.477.082L306 1c-1.575 3.578-3.757 6.315-6.25 9.313l-2.414 2.933c-1.93 2.276-3.922 4.451-5.961 6.629-2.633 2.783-2.633 2.783-2.3 5.477 1.191 3.409 2.977 5.438 5.363 8.148q1.358 1.572 2.71 3.148l1.417 1.648c2.42 2.875 4.712 5.847 6.998 8.829l1.3 1.686c3.006 3.927 3.006 3.927 4.137 6.189a413 413 0 0 1-7.625.25l-2.16.102c-5.24.096-8.106-.837-12.215-4.352-1.943-2.148-3.672-4.409-5.375-6.75l-1.363-1.824A574 574 0 0 1 279 38c-3.986 1.544-5.943 4.068-8.562 7.375l-2.317 2.898c-2.098 2.6-2.098 2.6-3.574 5.063C263 55 263 55 260.52 55.39l-2.707-.141-2.731-.11L253 55c2.865-3.979 5.81-7.815 9.035-11.508l1.63-1.867a491 491 0 0 1 3.283-3.7l1.54-1.753 1.392-1.56c1.342-1.93 1.9-3.264 2.12-5.612-.92-1.852-.92-1.852-2.465-3.54l-1.665-1.995-1.808-2.09-3.601-4.297-1.79-2.107a453 453 0 0 1-6.483-7.846l-1.895-2.305C251 3 251 3 251 1"/>
        <path fill="#FCFCFD" d="M163 0h77v1l-2.782.028q-5.122.068-10.243.18-2.214.042-4.429.063c-2.125.021-4.249.068-6.374.12l-3.872.063c-3.278.342-3.278.342-5.715 1.951-2.49 4.078-2.156 8.034-2.116 12.724l-.012 2.988q-.004 3.123.022 6.246c.02 3.192 0 6.381-.026 9.573q.004 3.033.016 6.068l-.025 2.898.038 2.69.01 2.366c.357 2.205.357 2.205 2.317 3.79 3.222 1.84 6.404 1.732 10.02 1.764l2.269.054c2.384.054 4.768.088 7.152.121q2.43.05 4.86.104c3.963.085 7.926.152 11.89.209v1h-64l1-49h16V1h-33z"/>
        <path fill="#4565AD" d="m215.91.336 3.998-.02 2.067.032c2.086.027 4.167 0 6.253-.032l3.994.02 3.65.017C239 1 239 1 241.422 3.48 243 6 243 6 243 7l-2.004.076q-4.467.175-8.934.362l-3.154.119-2.998.127-2.777.11C221.018 7.77 221.018 7.77 220 9a194 194 0 0 0-.563 7.063L219 23h21v6h-21l.437 8.938.131 2.82.115 2.207.112 2.27c.023 1.79.023 1.79 1.205 2.765 1.779.158 3.563.251 5.347.316l3.272.127 3.443.12 3.455.13q4.242.16 8.483.307v6q-7.552.149-15.106.22-2.568.03-5.136.082c-2.465.049-4.93.071-7.395.089l-2.308.062c-3.43.002-5.922-.39-9.036-1.849-3.1-4-2.736-7.731-2.683-12.663l-.015-2.973q-.004-3.111.027-6.221c.027-3.17 0-6.337-.032-9.507q.006-3.024.02-6.049l-.03-2.866c.078-4.417.266-6.697 2.803-10.42 3.53-2.326 5.593-2.55 9.801-2.569"/>
        <path fill="#4565AD" d="M150 1h46v6h-16v48h-15V7h-15z"/>
        <path fill="#4666AD" d="M62 1h15v54H62z"/>
        <path fill="#4263AB" d="M1 2h14v53H1z"/>
    </g>
</svg>
