<?xml version="1.0" encoding="UTF-8"?>
<svg data-bbox="-0.194 -0.424 1884.194 496.747" height="496" width="1884" xmlns="http://www.w3.org/2000/svg" data-type="color">
    <g>
        <path fill="#ED6D01" d="M360 0h301c24 89 24 89 30 112H491v72h181c-.685 5.479-1.485 10.415-2.93 15.672l-.587 2.187a2224 2224 0 0 1-1.928 7.106l-1.358 5.032a7692 7692 0 0 1-3.592 13.253q-1.438 5.301-2.868 10.604c-4.235 15.688-8.492 31.371-12.854 47.025l-.86 3.096-.776 2.77-.663 2.369C643 295 643 295 642 297H491v86h213c-1.263 6.317-2.564 12.462-4.259 18.652l-.656 2.43a4455 4455 0 0 1-2.136 7.856l-1.502 5.544q-1.974 7.28-3.955 14.558-1.597 5.875-3.188 11.752a42776 42776 0 0 1-7.245 26.685c-2.318 8.518-4.696 17.017-7.059 25.523H360z" data-color="1"/>
        <path fill="#ED6D01" d="M1182 0h300c30 110 30 110 30 112h-200v72h182c-4.6 18.4-4.6 18.4-6.61 25.86l-.696 2.598q-1.113 4.146-2.23 8.292l-1.575 5.86-3.28 12.182q-2.095 7.783-4.182 15.567-1.62 6.032-3.246 12.06-.773 2.871-1.541 5.742-1.075 4.008-2.16 8.015l-.628 2.358-.607 2.233-.512 1.903c-1.099 3.493-2.447 6.902-3.733 10.33h-151v86h213c-1.32 7.263-2.733 14.212-4.69 21.29l-.794 2.915c-.856 3.142-1.72 6.28-2.582 9.42l-1.8 6.59q-2.36 8.63-4.73 17.258-1.935 7.062-3.864 14.127a41780 41780 0 0 1-8.724 31.866l-.684 2.489-.593 2.16c-.47 1.642-1 3.266-1.539 4.885h-313z" data-color="1"/>
        <path fill="#ED6D01" d="M146.74-.304c4.487.019 8.974.02 13.46.024q12.697.017 25.392.064c9.65.034 19.3.05 28.949.065Q244.27-.102 274 0c4.392 14.904 8.658 29.833 12.714 44.832l1.517 5.593q1.565 5.767 3.123 11.537 2 7.395 4.012 14.787 1.556 5.731 3.106 11.466l1.482 5.46q1.027 3.78 2.045 7.563l.619 2.261c.784 2.926 1.382 5.457 1.382 8.501l-2.065.01q-24.915.122-49.832.278-12.048.076-24.098.134-10.508.05-21.014.121-5.559.039-11.118.06c-4.146.016-8.291.047-12.437.078l-3.688.007c-10.27.1-21.277.693-29.409 7.754-2.047 2.381-2.338 4.543-2.652 7.62 1.363 17.175 17.256 29.762 28.292 41.543 3.49 3.733 6.918 7.502 10.251 11.376 2.378 2.714 4.825 5.365 7.27 8.02 3.019 3.278 6.022 6.565 8.937 9.937 3.112 3.592 6.331 7.078 9.563 10.562 3.788 4.086 7.521 8.204 11.168 12.418 2.83 3.217 5.74 6.362 8.64 9.516 4.434 4.822 8.817 9.69 13.192 14.566l4.5 5a11478 11478 0 0 1 8.937 9.938l2.246 2.5a809 809 0 0 0 4.79 5.25A353 353 0 0 1 282 288l2.468 3.09c24.22 30.65 39.3 65.102 35.063 104.762-3.773 29.617-17.843 55.84-41.172 74.699-33.41 25.117-75.35 25.95-115.314 25.753-4.555-.019-9.11-.02-13.665-.024q-12.87-.015-25.741-.064c-9.788-.034-19.575-.05-29.363-.065-20.092-.031-40.184-.084-60.276-.15l-.737-2.74a198584 198584 0 0 0-10.612-39.446l-4.872-18.107a5724 5724 0 0 0-8.124-29.921 5540 5540 0 0 0-3.018-10.967l-1.058-3.85-.929-3.365C4 385 4 385 4 383l2.243-.004q27.096-.055 54.191-.18c8.736-.04 17.471-.072 26.207-.087q11.429-.019 22.857-.083c4.03-.023 8.059-.039 12.089-.038q5.703 0 11.408-.049c2.04-.012 4.081-.005 6.122.002 9.594-.107 19.012-1.283 27.133-6.748 2.994-4.813 3.348-8.964 2.187-14.489-3.695-11.662-12.659-19.713-20.874-28.367-4.297-4.542-8.299-9.223-12.192-14.117-2.99-3.58-6.167-6.953-9.371-10.34a247 247 0 0 1-13.653-15.68c-3.92-4.709-8.149-9.13-12.34-13.597a300 300 0 0 1-8.343-9.313c-1.98-2.272-4.01-4.494-6.04-6.722a224 224 0 0 1-8.812-10.375c-3.745-4.637-7.72-8.985-11.812-13.313-4.802-5.082-9.381-10.247-13.743-15.719a192 192 0 0 0-5.015-5.937C17.065 184.71-2.362 148.039 0 103c1.87-22.724 10.55-44.416 25-62l2.117-2.617C47.177 14.795 78.524 3.58 108.613.272c12.654-1.015 25.443-.639 38.127-.576" data-color="1"/>
        <path fill="#ED6D01" d="M759 0h347c5.743 18.378 5.743 18.378 7.432 24.754l.603 2.245q.957 3.565 1.906 7.134l1.363 5.077q1.774 6.615 3.541 13.23 2.832 10.594 5.674 21.185l1.954 7.307 1.225 4.572.587 2.197c1.574 5.854 3.266 11.668 5.01 17.474C1136 108 1136 108 1136 112H998v384H867V112H729c1.367-6.835 2.845-13.476 4.69-20.176l.794-2.915q1.287-4.72 2.582-9.436l1.8-6.595q1.88-6.883 3.766-13.765 2.418-8.83 4.828-17.66l4.606-16.855.89-3.252a17946 17946 0 0 1 3.228-11.801l.684-2.493.593-2.165C757.93 3.245 758.46 1.62 759 0" data-color="1"/>
        <path fill="#ED6D01" d="M1746.672-.203c3.54.013 7.079.014 10.618.016q10.008.011 20.015.043c7.609.022 15.217.033 22.826.043q23.435.032 46.869.1c1.753 5.154 3.423 10.302 4.85 15.557l1.003 3.68 1.061 3.92 1.133 4.163q1.492 5.484 2.978 10.97 1.756 6.467 3.515 12.932 1.458 5.36 2.91 10.721c1.816 6.7 3.64 13.396 5.493 20.085q1.27 4.589 2.534 9.178.604 2.183 1.213 4.364.842 3.016 1.67 6.034l.963 3.46C1877 108 1877 108 1877 112l-1.771.007q-21.48.089-42.957.229c-6.925.044-13.85.084-20.775.11q-10.047.04-20.094.117-3.81.025-7.62.034c-29.326.08-58.488 2.034-80.783 23.503-19.44 21.858-23.504 52.103-21.864 80.345 2.72 38.198 15.284 75.614 40.864 104.655l2.316 2.648c32.978 37.162 79.772 55.756 128.782 59.082 10.29.553 20.601.43 30.902.27-1.492 8.241-3.594 16.287-5.781 24.367l-1.122 4.174q-1.488 5.532-2.983 11.061-1.23 4.555-2.456 9.11c-5.78 21.459-11.624 42.9-17.658 64.288-71.856 1.13-139.065-13.763-196-60l-1.572-1.26c-8.21-6.623-15.76-13.872-23.24-21.303l-2.641-2.612c-5.936-5.965-11.34-12.218-16.547-18.825l-1.635-2.061c-39.543-50.415-65.286-116.574-65.568-181.045l-.017-3.155q-.014-3.296-.02-6.592c-.01-3.28-.04-6.56-.073-9.84-.094-18.607 1.468-36.913 6.063-54.995l.78-3.131c11.12-43.374 35.627-81.14 74.6-104.296C1664.87 5.6 1704.827-.379 1746.673-.203" data-color="1"/>
    </g>
</svg>
