<?xml version="1.0" encoding="UTF-8"?>
<svg data-bbox="-0.489 -0.479 1325.978 715.514" height="714" width="1325" xmlns="http://www.w3.org/2000/svg" data-type="color">
    <g>
        <path fill="#03B4D6" d="M1274.5-.08q10.876-.136 21.754-.207 3.514-.026 7.027-.073c3.142-.041 6.283-.057 9.425-.066l2.762-.053c6.033.022 6.033.022 8.585 2.358 1.788 4 1.656 7.85.948 12.121-2.091 4.47-5.626 6.54-10.098 8.363-3.032 1.016-6.005 1.3-9.182 1.586l-2.15.204q-2.34.22-4.681.425c-3.518.309-7.032.644-10.548.977q-2.927.276-5.854.548c-11.52 1.075-23.029 2.269-34.538 3.455q-9.832 1.01-19.666 2.011l-2.028.207c-74.78 7.616-149.591 15.089-224.627 19.705a406 406 0 0 0-17.628 1.52l1.354 2.189c9.477 15.362 18.654 30.8 27.056 46.785 1.625 3.091 3.265 6.173 4.906 9.256 30.587 57.833 54.797 118.836 75.684 180.77l.99 2.932c13.635 40.393 25.946 81.132 36.714 122.384q.723 2.767 1.455 5.53c5.858 22.21 5.858 22.21 2.897 28-2.496 3.32-5.042 5.261-9.056 6.153-11.054 1.224-17.846-3.605-26.438-10l-4.777-3.5-2.421-1.777c-3.592-2.617-7.226-5.17-10.864-7.723-9.656-6.79-19.212-13.718-28.77-20.645-8.742-6.333-17.506-12.627-26.336-18.835-5.924-4.172-11.797-8.413-17.664-12.664A1376 1376 0 0 0 993.501 371c-6.63-4.661-13.207-9.39-19.77-14.144a1557 1557 0 0 0-17.342-12.34c-5.097-3.59-10.155-7.23-15.2-10.89-7.187-5.213-14.443-10.319-21.726-15.395A1088 1088 0 0 1 903 306.501c-8.793-6.383-17.691-12.608-26.601-18.825a1948 1948 0 0 1-28.462-20.238 819 819 0 0 0-18.977-13.35 1046 1046 0 0 1-14.21-9.9 5538 5538 0 0 0-26.184-18.392 7878 7878 0 0 1-7.718-5.409A3281 3281 0 0 0 750 199l-.348 1.743C733.049 283.392 705.658 364.59 670.063 441l-1.323 2.899c-2.8 5.891-5.236 9.372-11.223 12.328-6.717 2.065-14.157 1.545-20.41-1.676-4.463-3.286-7.223-7.901-10.106-12.55l-1.258-2.029a1114 1114 0 0 1-5.546-9.089c-2.854-4.727-5.79-9.372-8.884-13.945-5.26-7.782-10.304-15.698-15.358-23.616-3.8-5.953-7.609-11.898-11.454-17.822a3716 3716 0 0 1-13.5-21l-8-12.5-1.612-2.52a3757 3757 0 0 0-4.2-6.542l-1.293-2.028a162 162 0 0 0-7.012-10.081c-9.527-12.734-9.527-12.734-8.657-21.391 1.296-4.084 3.076-5.335 6.774-7.438 2.793-.93 4.495-1.13 7.382-1.147l2.715-.021 2.97-.009 3.135-.02c3.429-.02 6.857-.03 10.286-.04l3.546-.013q9.289-.03 18.578-.045c6.4-.01 12.798-.045 19.197-.085 4.919-.026 9.837-.034 14.755-.038q3.54-.008 7.077-.035c3.301-.024 6.602-.024 9.903-.017l2.952-.038c5.844.044 8.995.729 13.504 4.508l1.832 1.477c2.017 2.631 1.89 5.088 1.75 8.305-.71 2.709-1.43 3.494-3.707 5.093-11.235 5.44-24.8 5.993-37.063 7.25l-4.933.523c-9.9 1.033-19.778 1.857-29.73 2.177-3.177.039-3.177.039-6.15 1.175l2.528 3.079c5.925 7.238 11.754 14.508 17.32 22.027a583 583 0 0 0 6.778 8.894c26.887 34.897 26.887 34.897 33.375 49 3.866-9.123 6.951-18.504 10.101-27.89l1.788-5.302q2.38-7.067 4.755-14.137l2.951-8.782q3.946-11.732 7.887-23.468 5.235-15.6 10.519-31.186c10.952-32.307 20.197-64.21 26.882-97.67 7.311-36.56 7.311-36.56 22.226-46.537 3.452-1.876 7.1-3.037 10.89-4.028l2.102-.556c3.868-.592 7.609-.357 11.494-.113l2.535.147c8.265.503 16.509 1.219 24.753 1.988 3.65.34 7.302.67 10.954 1.002q4.39.398 8.781.8c30.397 2.765 60.787 5.371 91.257 7.17l3.956.234q5.55.325 11.099.637l3.422.195c5.29.293 10.575.536 15.872.673l2.94.09q2.68.08 5.364.106c5.041.155 7.848.775 11.472 4.627 1.095 4.03.338 7.962-.938 11.875-5.335 5.497-15.46 6.214-22.687 7.688l-2.965.63c-15.526 3.213-30.421 4.172-46.223 4.12h-3.063c-19.392-.022-38.608-1.216-57.923-2.852a152 152 0 0 0-16.201-.46l1.654.97c31.477 18.495 62.059 37.885 92.026 58.736a808 808 0 0 0 7.765 5.305c14.157 9.59 27.782 19.737 41.192 30.34A849 849 0 0 0 951.5 286a1288 1288 0 0 1 30.532 24.16 752 752 0 0 0 13.155 10.465c5.702 4.446 11.233 9.065 16.73 13.758a479 479 0 0 0 8.583 7.117c4.606 3.75 9.146 7.57 13.668 11.421a444 444 0 0 0 10.207 8.392c6.561 5.339 12.65 11.169 18.797 16.973 2.728 2.559 5.497 5.074 8.265 7.59A339 339 0 0 1 1085.001 399c-3.553-9.72-7.679-19.095-11.983-28.5-14.093-30.843-27.006-62.185-39.96-93.52-20.553-49.696-43.279-98.405-66.327-146.984-7.451-15.713-14.817-31.458-21.974-47.307a2393 2393 0 0 0-10.518-22.966l-1.226-2.643c-2.396-5.162-2.396-5.162-4.801-10.32-3.56-7.62-7.099-15.247-10.297-23.025l-1.212-2.947c-.838-3.328-.598-5.49.298-8.788 3.358-3.993 6.359-6.718 11.627-7.28l3.055-.044 3.534-.065 3.885-.04 4.127-.068c3.786-.061 7.572-.11 11.358-.157 4.085-.053 8.169-.118 12.253-.18q12.025-.181 24.052-.34a24488 24488 0 0 0 28.148-.4q25.208-.368 50.414-.713 24.288-.332 48.575-.686l3-.044 2.995-.044 5.975-.086 2.98-.044q23.322-.337 46.646-.666l16.72-.238c21.676-.313 43.352-.602 65.028-.832q6.563-.07 13.127-.153" data-color="1"/>
        <path fill="#A39FA7" d="m637 572 2.586 1.25c12.46 6.747 21.404 17.749 25.488 31.318 1.18 4.883 1.179 9.618 1.121 14.62l-.006 2.537c-.01 3.091-.038 6.183-.064 9.275L666 652h-83c-.699 17.59-.699 17.59 5.938 33.277l2.062 1.66 2.063 1.715c3.513 2.444 6.55 2.484 10.706 2.522l3.59.04 3.883.032 6.03.074q7.44.09 14.88.157 4.174.038 8.348.093 3.93.05 7.863.077l3.61.05 3.168.031c3.718.354 6.592 1.377 9.64 3.53 1.774 2.536 1.688 4.55 1.719 7.617.03 1.029.062 2.057.094 3.117-.804 4.073-2.41 5.4-5.594 8.008-3.07.628-3.07.628-6.543.631l-3.957.038-4.258-.04q-2.202 0-4.406.007-4.617.003-9.234-.04a874 874 0 0 0-11.75-.008c-3.036.01-6.071.001-9.107-.014a546 546 0 0 0-4.327.002c-14.043.038-24.21-2.873-34.512-12.54-11.176-11.532-12.054-24.7-12.11-39.942l-.016-3.752q-.014-3.923-.02-7.847c-.01-3.954-.04-7.908-.072-11.862-.092-21.643.243-39.828 15.894-56.344C592.228 567.477 617.187 562.186 637 572m-45.82 26.785C583.343 608.374 583 617.542 583 630h62c0-14.211-.784-22.353-10.187-32.625-12.459-12.007-31.583-10.408-43.633 1.41" data-color="2"/>
        <path fill="#A39FA7" d="m1070.295 567.71 1.957-.02c2.144-.02 4.288-.023 6.432-.025l4.486-.02q4.714-.018 9.43-.015c4 0 8.001-.027 12.002-.062 3.095-.022 6.19-.026 9.284-.025q2.21-.002 4.42-.027c14.614-.14 24.796 2.89 35.41 13.14 6.083 6.565 10.375 14.905 10.438 23.93l.026 2.774.013 3.021.025 3.2c.025 3.492.041 6.985.056 10.478l.016 3.614q.04 9.462.06 18.924c.017 6.522.062 13.043.113 19.565.033 5.01.045 10.021.05 15.032q.01 3.608.047 7.214c.031 3.361.031 6.721.024 10.083l.05 3.015c-.043 4.67-.103 6.796-3 10.61-2.989 2.139-4.49 2.56-8.134 2.51l-2.78.039c-2.871-.702-4.626-1.596-6.669-3.75-2.488-4.533-1.641-10.291-1.539-15.309l.021-3.947c.02-3.451.069-6.901.124-10.352.051-3.526.074-7.052.1-10.578.053-6.91.138-13.82.243-20.728-1.906.03-1.906.03-3.852.063-4.73.073-9.46.118-14.19.156q-3.066.03-6.133.082a837 837 0 0 1-8.832.09l-2.757.062c-5.722.002-8.858-.682-13.236-4.453-1.73-3.46-1.483-7.217-1-11 2.114-3.5 3.118-4.706 7-6a68 68 0 0 1 4.288-.114h2.608l2.804.016 2.879.004q4.554.01 9.109.031l6.174.014q7.569.016 15.138.049a1362 1362 0 0 0-.375-9.5l-.093-2.688c-.356-8.067-1.145-15.407-6.532-21.812-6.91-5.262-14.478-5.16-22.773-5.317l-2.8-.063q-4.4-.096-8.802-.183l-5.988-.13A8686 8686 0 0 0 1081 589l.009 1.844q.1 22.222.147 44.443.02 10.747.07 21.493.046 9.368.057 18.734.004 4.959.035 9.919c.021 3.692.024 7.383.023 11.075l.033 3.318c-.039 9.338-.039 9.338-3.374 13.174-3.937 1.968-8.707 1.458-13 1-3.617-2.098-4.683-3.05-6-7a104 104 0 0 1-.14-5.339l-.017-3.356-.004-3.684-.015-3.878q-.019-5.269-.024-10.538l-.011-6.583q-.021-10.3-.028-20.601-.007-11.889-.05-23.778-.032-9.192-.034-18.383 0-5.489-.024-10.978a1919 1919 0 0 1-.01-12.245l-.027-3.672.017-3.373-.005-2.924c1.02-7.315 4.742-9.914 11.667-9.959" data-color="2"/>
        <path fill="#A39FA7" d="m200 572 2.59 1.25c9.767 5.297 16.828 12.763 21.91 22.563l.989 1.862c5.935 12.335 4.824 26.828 4.772 40.154-.011 3.23 0 6.459.012 9.689.016 21.189-1.982 37.525-17.144 53.447-11.723 11.137-25.626 13.658-41.129 13.347-10.352-.468-18.936-3.9-27-10.312l-2.305-1.777c-10.042-8.267-16.648-19.65-18.074-32.685-.146-3.768-.176-7.517-.152-11.288l-.012-4.167q-.008-4.337.022-8.673c.022-3.671.01-7.341-.015-11.012-.014-2.863-.01-5.725 0-8.587.005-2-.007-4.001-.02-6.001.148-14.558 4.84-26.828 14.806-37.56 15.9-14.734 40.823-19.985 60.75-10.25m-43.91 25.566c-6.36 5.82-9.717 13.17-10.23 21.79l-.021 2.46-.03 2.812-.012 3.009-.017 3.135q-.014 3.282-.02 6.564c-.01 3.322-.04 6.644-.072 9.967q-.01 3.198-.016 6.396l-.038 2.978c.034 10.617 2.542 18.829 9.616 26.885 9.129 8.092 16.69 9.13 28.75 8.438 7.523-1.141 13.08-6.496 18-12 4.081-6.29 6.098-12.314 6.161-19.815l.03-2.813.012-3.009.017-3.135q.014-3.282.02-6.564c.01-3.322.04-6.644.072-9.967q.01-3.198.016-6.396l.038-2.978c-.034-10.617-2.542-18.829-9.616-26.885-13.263-11.757-29.008-12.067-42.66-.872" data-color="2"/>
        <path fill="#A39FA7" d="m281.408 567.71 1.958-.02c2.138-.02 4.276-.023 6.415-.025l4.482-.02q4.705-.018 9.412-.015c3.993 0 7.985-.027 11.978-.062 3.09-.022 6.181-.026 9.272-.025q2.205-.002 4.41-.027c14.67-.14 24.655 2.968 35.38 13.106 6.222 6.602 10.374 15.822 10.439 24.926l.026 2.748.013 2.993.024 3.17q.036 5.19.056 10.381l.016 3.581q.04 9.375.06 18.75c.018 6.46.062 12.92.113 19.382.034 4.964.045 9.929.051 14.893q.01 3.574.046 7.147c.032 3.33.032 6.659.024 9.99l.05 2.986c-.043 4.65-.111 6.746-3 10.543-4.365 3.13-8.48 2.732-13.633 1.889-2.987-1.673-4.542-2.592-5.609-5.872-.403-2.195-.522-4.21-.53-6.441l-.016-2.592-.003-2.818-.015-2.987q-.017-3.21-.026-6.42-.02-5.082-.054-10.163c-.061-9.632-.115-19.264-.149-28.895q-.032-8.839-.1-17.676-.021-3.368-.026-6.734c-.005-3.141-.028-6.281-.056-9.422l.01-2.805c-.078-5.99-.984-10.281-4.97-15.004l-1.644-1.421-1.605-1.454c-6.14-3.608-13.255-3.62-20.176-3.71l-2.79-.06c-2.914-.059-5.828-.105-8.741-.151l-5.961-.118q-7.27-.142-14.54-.257c.003.61.004 1.219.006 1.847q.068 22.245.098 44.492.014 10.758.048 21.516.03 9.376.037 18.753.004 4.965.023 9.93c.015 3.695.017 7.39.016 11.084l.022 3.328-.009 3.05.006 2.649c-.272 2.6-.83 4.16-2.246 6.35-4.453 2.969-8.778 2.634-14 2-3.617-2.097-4.683-3.048-6-7a104 104 0 0 1-.134-5.338l-.013-3.356.002-3.684-.01-3.878q-.014-5.269-.012-10.538-.002-4.398-.009-8.797-.011-10.379-.01-20.757 0-10.704-.025-21.408-.02-9.192-.018-18.383.001-5.488-.013-10.978a2777 2777 0 0 1-.001-12.245l-.017-3.672.013-3.373-.002-2.924c.274-2.942.897-5.044 2.249-7.668 3.573-2.382 5.164-2.263 9.408-2.291" data-color="2"/>
        <path fill="#A39FA7" d="m718.408 567.71 1.958-.02c2.138-.02 4.276-.023 6.415-.025l4.482-.02q4.705-.018 9.412-.015c3.993 0 7.985-.027 11.978-.062 3.09-.022 6.181-.026 9.272-.025q2.205-.002 4.41-.027c13.3-.127 23.825 2.054 33.665 11.485 7.257 7.86 12.098 16.725 12.14 27.591l.018 2.702.003 2.925.015 3.111.044 17.243q.015 7.41.02 14.818c.006 6.332.03 12.664.058 18.996.019 4.867.024 9.735.025 14.603q.004 3.502.025 7.004c.017 3.263.015 6.525.008 9.788l.028 2.925c-.03 4.89-.112 8.366-3.384 12.294-3.938 1.968-8.708 1.458-13 1-3.617-2.098-4.683-3.05-6-7a67 67 0 0 1-.138-4.231l-.017-2.613-.003-2.857-.015-3.016q-.017-3.246-.026-6.492-.02-5.139-.054-10.277c-.061-9.74-.115-19.48-.149-29.22-.02-5.956-.056-11.912-.1-17.867q-.021-3.405-.026-6.81c-.005-3.176-.028-6.352-.056-9.529l.01-2.839c-.077-6.02-.962-10.33-4.97-15.078l-1.644-1.421-1.605-1.454c-6.14-3.608-13.255-3.62-20.176-3.71l-2.79-.06c-2.914-.059-5.828-.105-8.741-.151l-5.961-.118q-7.27-.142-14.54-.257l.01 1.828q.099 22.035.146 44.068.022 10.656.071 21.311.048 10.28.058 20.56.009 3.926.033 7.85c.022 3.662.025 7.322.023 10.983l.033 3.289c-.038 9.283-.038 9.283-3.373 13.11-3.228 2.152-4.205 2.273-7.938 2.25l-2.59.016c-2.686-.288-4.243-.744-6.472-2.265-2.04-3.219-2.251-5.772-2.254-9.542l-.017-3.416.012-3.734-.01-3.943c-.01-3.566-.006-7.132 0-10.698.005-3.732 0-7.465-.003-11.197q-.004-9.402.011-18.803.014-10.869-.004-21.738-.013-9.333-.005-18.665.006-5.574-.003-11.148c-.007-4.141.003-8.283.014-12.425l-.012-3.734.017-3.416.002-2.968c.266-2.72.754-4.3 2.252-6.573 3.573-2.382 5.164-2.263 9.408-2.291" data-color="2"/>
        <path fill="#A39FA7" d="M943 579c3.644 3.919 4.905 6.58 5 12-1.21 3.495-2.399 5.452-5.125 7.938-5.014 1.853-9.478 1.123-14.328-1.024a539 539 0 0 1-5.024-2.64c-11.897-6.005-25.742-6.517-38.523-3.274-4.034 1.616-6.543 3.314-9 7-.355 2.572-.355 2.572-.312 5.375l-.051 2.836c.445 3.417 1.202 5.096 3.363 7.789a61 61 0 0 0 6.813 3.625l4.359 2.082 2.365 1.116c4.377 2.092 8.695 4.302 13.025 6.49 5.845 2.943 11.707 5.831 17.641 8.59l3.096 1.445q2.918 1.358 5.85 2.684c7.788 3.628 15.682 8.074 20.289 15.593l1.37 2.164c4.925 9.138 5.586 19.922 2.993 29.926-3.32 9.474-9.105 15.407-17.801 20.285-21.947 9.234-49.927 7.183-71.823-1.492l-2.115-.883-1.954-.81c-4.72-2.17-7.225-4.611-10.108-8.815-.872-3.124-.743-5.847 0-9 2.182-2.756 3.872-4.436 7-6 5.459-.408 9.043.579 14 2.813 11.66 4.904 22.733 6.45 35.313 6.625l3.036.067c6.84-.021 12.626-1.144 18.651-4.505 3.046-3.264 3.886-5.089 4.438-9.5-.597-4.776-1.861-8-5.38-11.348-4.34-3.054-9.008-5.162-13.808-7.402l-6.707-3.191a1962 1962 0 0 0-11.783-5.535 1721 1721 0 0 1-11.023-5.186 513 513 0 0 0-4.304-2.005C869.849 637.039 859.07 630.653 854 617c-2.857-8.477-2.213-20.867 1.684-28.863C862.024 577.845 871.39 571.994 883 569c19.912-4.504 42.84-1.154 60 10" data-color="2"/>
        <path fill="#A39FA7" d="m426.813 567.625 2.582-.148c3.84.771 5.096 2.535 7.606 5.523 1.432 2.943 2.418 5.99 3.413 9.105l.918 2.75c.994 2.988 1.966 5.982 2.938 8.977l2.064 6.234a4317 4317 0 0 1 5.38 16.389c1.826 5.58 3.67 11.155 5.511 16.73Q462.636 649.586 468 666c3.185-7.642 5.888-15.4 8.485-23.258l1.27-3.82q1.666-5.01 3.325-10.023a9265 9265 0 0 1 3.957-11.918 5949 5949 0 0 1 3.24-9.733 1059 1059 0 0 0 5.972-18.388l1.068-3.356a468 468 0 0 0 1.921-6.19c1.646-5.133 2.84-8.517 7.762-11.314 4.732-.913 9.36-.898 13.625 1.438 3.13 5.83 2.712 11.277.875 17.41a438 438 0 0 1-2.285 6.644l-1.874 5.532q-.997 2.925-2.013 5.843c-1.404 4.04-2.784 8.09-4.159 12.14q-2.083 6.142-4.183 12.28c-3.734 10.918-7.337 21.875-10.875 32.858-3.841 11.912-7.697 23.821-11.736 35.668l-.893 2.677C477.599 711.7 477.599 711.7 473 714c-1.988.238-1.988.238-4.312.313l-2.3.113c-3.392-.605-4.894-2.065-7.387-4.426-1.496-2.993-1.496-2.993-2.77-6.655l-.74-2.09A686 686 0 0 1 453 694l-1.954-5.662a2984 2984 0 0 1-6.726-19.865l-1.22-3.633q-2.537-7.552-5.066-15.106a7311 7311 0 0 0-7.216-21.461 5099 5099 0 0 1-5.721-17.05q-1.208-3.604-2.429-7.204c-1.135-3.35-2.253-6.705-3.367-10.062l-1.02-2.97c-1.846-5.633-3.23-11.035-2.281-16.987 3.03-4.848 5.232-6.157 10.812-6.375" data-color="2"/>
        <path fill="#A39FA7" d="m36.705 567.823 2.811-.039 3.015-.022 3.116-.025q3.258-.02 6.516-.032c3.325-.017 6.649-.061 9.974-.105q3.165-.015 6.332-.026l3.014-.053c6.893.022 6.893.022 10.113 2.38 2.886 4.314 2.915 8 2.404 13.099-2.081 4.54-2.081 4.54-5 6-2.749.133-5.476.21-8.227.246l-5.066.1q-3.99.071-7.978.13c-2.569.04-5.137.092-7.706.145l-2.374.026c-6.768.149-13.639.768-18.962 5.353l-1.925 1.563c-5.692 7.874-5.208 17.8-5.16 27.097q-.003 2.1-.01 4.197-.005 4.374.017 8.747c.017 3.714.007 7.427-.01 11.141-.012 2.884-.008 5.767 0 8.65q.003 2.054-.008 4.107c-.036 8.988.103 17.458 5.721 24.873 5.448 5.32 10.293 6.059 17.559 6.031l2.547.033c2.673.034 5.346.05 8.02.061q5.279.024 10.558.094l2.419-.01c5.246.07 8.924.96 13.585 3.416 2.483 3.354 2.408 6.758 2.328 10.809-.488 3.257-1.972 4.974-4.328 7.191-2.29 1.145-3.62 1.144-6.168 1.177l-2.612.039-2.837.022-2.932.025q-3.084.02-6.169.032c-3.11.017-6.22.061-9.329.105-14.909.118-26.595-.697-37.953-11.4-7.677-7.59-12.155-16.963-12.293-27.89l.002-2.166-.02-2.343a1156 1156 0 0 1-.025-7.617l-.02-5.339q-.017-5.587-.015-11.176c0-4.748-.027-9.496-.061-14.245-.023-3.675-.027-7.35-.025-11.026q-.004-2.625-.027-5.248c-.126-15.564 2.22-26.403 13.398-37.923 6.676-6.264 14.567-10.092 23.791-10.204" data-color="2"/>
        <path fill="#646973" d="m290.848 401.797 2.225-.017q2.316-.014 4.632-.02c2.354-.01 4.708-.041 7.063-.072q2.259-.01 4.518-.016l2.118-.037c4.435.02 7.258.384 10.596 3.365.778 3.135.683 6.238.647 9.453.01.97.018 1.94.027 2.938a796 796 0 0 1-.01 9.644q.006 3.355.015 6.709.01 7.042-.027 14.085c-.028 6-.012 11.999.018 17.999.018 4.623.012 9.246 0 13.87q-.006 3.315.012 6.632c.013 3.104-.007 6.207-.035 9.311l.031 2.739c-.11 6.717-1.904 12.03-5.678 17.62-6.373 6.073-12.28 8.314-21.074 8.266l-2.318.006q-2.415 0-4.829-.011c-2.469-.01-4.937 0-7.406.013l-4.697-.008-2.241.012c-5.205-.048-5.205-.048-7.435-2.278-.568-7.167-.568-7.167 1.094-9.602 2.867-2.102 5.252-1.75 8.77-1.734l4.127-.039q3.238-.007 6.477.015c2.09.008 4.18-.013 6.27-.038l3.783.01c4.616-.812 6.214-2.294 9.48-5.612 1.155-3.467 1.328-6.541 1.562-10.187l.254-3.856L309 488l-2.503.064q-4.669.1-9.337.156c-1.991.03-3.982.08-5.972.132-8.41.085-16.516-.199-23.091-6.044-6.694-7.071-7.557-14.287-7.53-23.648l-.016-3.275q-.01-3.418.003-6.836a882 882 0 0 0-.052-10.414q-.001-3.331.002-6.662l-.034-3.123c.072-7.476 1.495-12.947 6.53-18.592l2-1.633 2-1.68c6.111-4.416 12.48-4.603 19.848-4.648M275 421c-1.139 2.278-1.155 3.622-1.208 6.155l-.059 2.6c-.058 3.937-.107 7.873-.138 11.81a508 508 0 0 1-.102 6.218 559 559 0 0 0-.114 8.979l-.084 2.788c.018 5.828 1.094 8.925 5.122 13.181 7.795 6.247 24.96 2.27 30.583 2.27v-59c-25.716-2.988-25.716-2.988-34 5" data-color="3"/>
        <path fill="#646973" d="M403 366c3 2 3 2 4 5a79 79 0 0 1 .134 4.586l.013 2.85-.002 3.122.01 3.293q.013 5.4.013 10.801l.01 7.492q.009 7.857.007 15.714.001 9.08.026 18.16c.015 5.826.018 11.65.018 17.475q0 3.717.013 7.434c.01 3.462.007 6.923 0 10.385.007 1.028.012 2.057.018 3.116l-.013 2.86.002 2.479c-.28 2.504-.914 4.105-2.249 6.233-3.252 1.626-6.834 1.206-10.41 1.238l-2.55.025q-2.68.02-5.36.032c-2.708.017-5.415.061-8.123.105q-2.61.015-5.217.026l-2.425.053c-6.902-.026-12.81-1.974-18.22-6.338l-1.57-1.891-1.617-1.86c-4.264-6.759-4.958-12.902-4.906-20.699l-.01-2.927q-.002-3.05.017-6.1c.016-3.09 0-6.178-.02-9.268q.004-2.978.013-5.955l-.019-2.766c.1-9.146 2.189-16.298 8.519-23.015 5.683-4.97 12.766-5.794 20.074-5.758l3.506.01 3.63.026 3.69.013q4.5.018 8.998.049l-.032-2.675q-.05-4.933-.078-9.868-.015-2.131-.04-4.262a807 807 0 0 1-.045-6.144l-.032-3.73c.222-3.253.719-5.445 2.227-8.321 2.771-1.386 4.933-1.188 8-1m-38 50c-5.788 5.788-7.209 7.644-7.304 15.398l.003 2.532-.013 2.63q-.008 2.751-.002 5.502c.003 2.796-.02 5.591-.045 8.387q-.004 2.677-.002 5.356l-.028 2.52c.039 4.94.491 8.487 3.391 12.675 8.404 6.404 8.404 6.404 32 4v-59z" data-color="3"/>
        <path fill="#646973" d="M481.25 409.25c7.289 7.289 10.056 15.124 10.086 25.297l.02 2.458q.015 2.567.015 5.134c.004 2.59.04 5.178.078 7.767.082 11.86-.917 21.303-9.383 30.336-7.372 6.272-15.471 8.146-24.902 8.031-8.736-.754-15.253-4.992-21.164-11.273-5.158-6.65-6.32-12.74-6.406-20.914l-.035-2.579a873 873 0 0 1-.04-5.39c-.019-2.714-.08-5.424-.144-8.137-.137-11.234.587-20.14 8.37-28.956 12.299-11.951 30.114-11.045 43.505-1.774M447 421c-3.373 5.058-4.596 8.778-4.496 14.91l-.005 2.214q.004 2.3.034 4.6c.03 2.336.021 4.67.008 7.005q.01 2.247.025 4.494l-.008 2.093c.088 4.612 1.03 7.763 3.442 11.684 4.528 4.33 8.093 6.67 14.313 7.375 5.8-.59 9.993-2.636 14.062-6.812 4.326-6.823 3.964-13.46 3.94-21.282-.002-2.208.021-4.415.046-6.623q.004-2.124.002-4.248l.01-3.87c-.489-4.64-1.924-8-5.127-11.403l-1.808-1.45-1.817-1.488c-6.798-5.029-16.927-2.97-22.621 2.801" data-color="3"/>
        <path fill="#646973" d="M143.25 409.25c7.546 7.546 10.055 15.721 10.086 26.176l.02 2.387q.015 2.487.015 4.974c.004 2.508.04 5.015.078 7.524.083 11.704-1.035 21.025-9.383 29.931-7.372 6.272-15.471 8.146-24.902 8.031-8.736-.754-15.253-4.992-21.164-11.273-5.158-6.65-6.32-12.74-6.406-20.914l-.035-2.579a873 873 0 0 1-.04-5.39c-.019-2.714-.08-5.424-.144-8.137-.137-11.234.587-20.14 8.37-28.956 12.299-11.951 30.114-11.045 43.505-1.774M109 421c-3.373 5.058-4.596 8.778-4.496 14.91l-.005 2.214q.003 2.3.034 4.6c.03 2.336.021 4.67.008 7.005q.01 2.247.025 4.494l-.008 2.093c.088 4.612 1.03 7.763 3.442 11.684 4.07 3.894 7.52 6.899 13.29 7.066 6.191-.308 10.325-1.653 14.71-6.066 4.742-6.946 4.585-13.834 4.467-21.946-.03-2.181-.021-4.36-.008-6.542.07-10.526.07-10.526-5.213-19.375l-1.809-1.45-1.816-1.488c-6.798-5.029-16.927-2.97-22.621 2.801" data-color="3"/>
        <path fill="#646973" d="m188.414 401.832 2.21-.01q2.317-.007 4.634-.007c2.338-.003 4.674-.02 7.011-.04 20.02-.078 20.02-.078 27.938 6.385 6.356 6.523 7.905 13.91 7.938 22.782l.02 3.478.003 3.713.01 3.846q.008 4.017.007 8.034c0 3.428.014 6.855.031 10.283.014 3.279.013 6.558.014 9.837l.022 3.725-.01 3.459.005 3.04c-.255 2.731-.76 4.355-2.247 6.643-2.771 1.385-4.934 1.188-8 1-3-2-3-2-4-5a123 123 0 0 1-.142-5.77l-.021-3.59-.013-3.882q-.025-3.015-.053-6.03c-.046-4.96-.083-9.92-.097-14.88q-.012-4.174-.057-8.348-.043-3.93-.037-7.863l-.05-3.61-.018-3.168c-.64-3.576-2.025-5.26-4.512-7.859-2.791-1.396-5.202-1.218-8.32-1.316l-3.809-.127-3.996-.12-4.02-.13q-4.928-.16-9.855-.307l.02 2.6q.09 12.116.135 24.234.022 6.23.071 12.46.048 6.01.059 12.02.008 2.295.032 4.59c.022 2.14.025 4.28.024 6.421l.02 3.695C189 485 189 485 187.697 486.89c-2.9 1.897-5.356 1.528-8.697 1.11-2.613-2.395-2.986-3.874-3.374-7.422q-.022-2.072.002-4.145l-.011-2.292c-.009-2.497.005-4.992.02-7.489l-.002-5.207q0-5.454.029-10.907c.022-4.663.023-9.326.016-13.99q-.002-5.374.013-10.749.006-2.58.004-5.159.002-3.602.028-7.203l-.007-2.158c.04-3.652.197-5.152 2.282-8.279 3.532-1.177 6.738-1.162 10.414-1.168" data-color="3"/>
        <path fill="#646973" d="M60.125 408.875C62.55 411.624 63 413.349 63 417c-1.125 2.313-1.125 2.313-3 4-4.43 1.492-6.737.505-10.875-1.437-7.404-3.028-14.158-3.69-22.125-2.563-2.867 1.212-2.867 1.212-5 3-.988 3.095-1.377 4.997-.223 8.068 1.408 2.224 2.362 2.834 4.735 3.911l2.176 1.013 2.355 1.055 4.943 2.312q3.89 1.794 7.788 3.567c20.3 9.274 20.3 9.274 24.105 18.116C69.63 463.21 69.21 468.75 68 474c-3.187 6.256-7.76 10.432-14.312 12.813-13.565 3.538-30.17 1.818-42.579-4.735C8 480 8 480 6.875 476.5 7 473 7 473 8 470.563c2.306-1.802 3.866-2.12 6.773-1.965 3.893.703 7.556 2.07 11.262 3.43 8.479 2.78 17.577 3.118 25.965-.028 2.348-1.932 2.348-1.932 2.375-5.375-.45-4.349-1.075-4.911-4.375-7.625a121 121 0 0 0-7.398-3.715l-2.16-1.023c-3.03-1.436-6.07-2.851-9.11-4.269a1493 1493 0 0 1-6.668-3.145l-2.055-.945C16.359 442.94 11.12 439.407 8 433c-1.889-6.38-1.72-13.007.898-19.148C12.5 407.799 18.398 404.79 25 403c11.877-2.85 24.765-.34 35.125 5.875" data-color="3"/>
        <path fill="#A39FA7" d="m1008.938 611.75 2.59-.016c2.687.289 4.243.744 6.472 2.266 2.72 3.816 2.289 8.15 2.275 12.636l.016 2.638c.014 2.876.013 5.752.01 8.628l.013 6q.01 6.29.002 12.577c-.006 5.372.011 10.743.035 16.114.014 4.13.015 8.261.012 12.392q0 2.97.016 5.941c.012 2.77.005 5.539-.006 8.308l.023 2.477c-.042 4.58-.434 7.564-3.395 11.289-3.94 1.97-8.705 1.452-13 1-3.008-1.684-4.555-2.601-5.609-5.909-.641-3.424-.548-6.873-.553-10.344l-.015-2.515q-.02-4.112-.027-8.224l-.017-5.724q-.014-6-.02-12c-.005-5.12-.03-10.24-.058-15.36q-.025-5.91-.025-11.823a1056 1056 0 0 0-.024-5.662 889 889 0 0 1-.009-7.927l-.028-2.352c.037-4.796.785-8.113 3.385-12.16 3.227-2.152 4.205-2.272 7.937-2.25" data-color="2"/>
        <path fill="#A39FA7" d="m1009.5 566.625 2.844-.023c3.077.461 4.435 1.247 6.656 3.398 1.426 4.279 1.305 8.391 1.375 12.875l.113 2.723c.061 4.569.026 6.71-2.77 10.472-3.684 2.616-6.253 3.218-10.718 2.93-2.84-.632-4.424-1.454-7-3-2.325-4.174-2.302-8.339-2.25-13l-.023-2.117c.019-5.119.358-8.96 4.054-12.672 2.74-1.495 4.61-1.612 7.719-1.586" data-color="2"/>
    </g>
</svg>
